# xmcd
#
# Track frame offsets: 
#        150
#        13645
#        26500
#        42078
#        57973
#        67613
#        85810
#        102368
#        122990
#        135813
#        147950
#        160105
#        170418
#        183895
#
# Disc length: 2717 seconds
#
# Revision: 1
# Processed by: cddbd v1.5.2PL0 Copyright (c) Steve Scherf et al.
# Submitted via: ExactAudioCopy v0.95b4
#
DISCID=a80a9b0e
DTITLE=Astor, Tom - Country Weihnachten
DYEAR=1900
DGENRE=Country
TTITLE0=Weihnachten woll'n wir feiern
TTITLE1=Der Stern bei der Krippe
TTITLE2=Medley: Warten auf den Weihnachtsmann
TTITLE3=Aba Heidschi Bumbeidschi Bum Bum
TTITLE4=Oh Tannenbaum
TTITLE5=Blue Christmas
TTITLE6=Ave Maria
TTITLE7=Star of the East
TTITLE8=Ja, Weihnachten möcht' ich nach Haus'
TTITLE9=Ihr Kinderlein kommet
TTITLE10=Schnee ist gut zum Schlittenfahr'n
TTITLE11=Frau Weihnachtsmann
TTITLE12=Lasset uns singen
TTITLE13=Stille Nacht, heilige Nacht
EXTD=
EXTT0=
EXTT1=
EXTT2=
EXTT3=
EXTT4=
EXTT5=
EXTT6=
EXTT7=
EXTT8=
EXTT9=
EXTT10=
EXTT11=
EXTT12=
EXTT13=
PLAYORDER=
